:SAMPLES-PER-SECOND 30
:FULLY-SPECIFIED
:DEGREES
255
root  25.4803 40.2964 -28.5405 -1.9982 -2.06079 2.30301
RightUpLeg  -6.5777 -26.8238 -18.816
RightLeg  15.1235 -12.5426 -3.02299
RightFoot  -1.00751 0.0277661 -0.370511
RightToes  0.000482159 0.542163 -0.142577
Spine  14.0903 -1.49033 -4.34421
Spine1  8.99047 -2.38009 0.591561
HEad  14.9339 -6.29112 -2.484
LeftShoulder1  8.49643 -12.8077 -45.4061
LeftArm  -24.3734 21.993 -18.1137
LeftForeArm  27.3437 -51.6431 -12.0301
LeftHand  -0.25398 0.0180481 5.50724
RightShoulder  5.09918 8.86935 35.2464
RightArm  2.90657 -24.3051 36.6141
RightForeArm  -14.546 26.7995 6.49112
RightHand  -2.23946 4.77615 -25.5255
LeftUpLeg  1.65336 10.6414 5.57693
LeftLeg  8.63461 48.8104 -1.52796
LeftFoot  -2.63507 0.189598 -2.28411
LeftToes  1.06248e-005 4.65854e-005 -8.185e-006
256
root  24.5772 40.3248 -28.4622 -1.52322 -6.90891 2.16973
RightUpLeg  -4.93985 -23.4302 -19.7115
RightLeg  10.4358 -24.4924 -1.10775
RightFoot  0.269227 0.0578508 -0.568943
RightToes  0.000482159 0.542163 -0.142577
Spine  12.6978 -1.38045 -3.91528
Spine1  9.27691 -2.24502 0.933281
HEad  15.3721 -4.21332 -3.48616
LeftShoulder1  8.4427 -12.7297 -45.3328
LeftArm  -24.3705 22.5087 -18.3212
LeftForeArm  28.1312 -51.4571 -11.8771
LeftHand  -0.25398 0.0180481 5.50724
RightShoulder  5.04803 8.78469 35.1165
RightArm  4.13488 -24.3212 36.6687
RightForeArm  -13.7811 26.5743 6.4014
RightHand  -1.89301 3.6533 -24.2485
LeftUpLeg  2.30066 11.2908 7.10621
LeftLeg  7.7409 50.3466 -1.93615
LeftFoot  -2.1621 0.249464 -2.94168
LeftToes  1.06248e-005 4.65854e-005 -8.185e-006
257
root  23.5404 40.3152 -28.3365 -0.967651 -11.5866 2.08565
RightUpLeg  -3.87682 -20.2762 -19.6869
RightLeg  6.9095 -33.5031 1.78344
RightFoot  2.09878 -0.174842 1.57004
RightToes  0.000482159 0.542163 -0.142577
Spine  11.3137 -1.35138 -3.70442
Spine1  9.4716 -2.24919 1.33376
HEad  15.6787 -1.34118 -4.32577
LeftShoulder1  8.33318 -12.5781 -45.1591
LeftArm  -24.0392 23.3202 -18.5908
LeftForeArm  28.4022 -51.4231 -11.8391
LeftHand  -0.25398 0.0180481 5.50724
RightShoulder  5.0315 8.73015 35.1639
RightArm  5.27056 -24.6357 36.6488
RightForeArm  -12.2256 26.4615 6.3012
RightHand  -1.52755 2.48919 -22.5286
LeftUpLeg  3.06017 11.698 8.59055
LeftLeg  6.69586 49.7925 -2.47216
LeftFoot  -1.92439 0.385823 -4.54004
LeftToes  1.06248e-005 4.65854e-005 -8.185e-006
258
root  22.4154 40.2809 -28.1819 -0.40863 -16.6 1.82163
RightUpLeg  -3.86293 -19.4417 -18.4748
RightLeg  5.097 -35.0375 4.28416
RightFoot  4.01367 -0.560505 4.37377
RightToes  0.000482159 0.542163 -0.142577
Spine  10.067 -1.33786 -2.84336
Spine1  9.66512 -2.05753 1.10676
HEad  15.7174 2.14143 -4.90927
LeftShoulder1  8.19642 -12.3881 -44.94
LeftArm  -23.4901 24.2444 -18.7739
LeftForeArm  28.1307 -51.3875 -11.8442
LeftHand  -0.25398 0.0180481 5.50724
RightShoulder  5.09833 8.75846 35.6045
RightArm  6.0701 -24.9877 36.3912
RightForeArm  -11.4414 26.2521 6.21424
RightHand  -1.44395 2.26423 -21.9173
LeftUpLeg  4.17965 12.0282 10.2719
LeftLeg  5.7 47.4906 -2.98682
LeftFoot  -2.36571 0.549425 -6.84749
LeftToes  1.06248e-005 4.65854e-005 -8.185e-006
259
root  21.2704 40.2589 -28.0064 -0.0179443 -22.4736 1.06811
RightUpLeg  -4.82878 -19.1734 -16.019
RightLeg  4.99346 -31.0672 5.64029
RightFoot  5.15943 -0.698417 5.06815
RightToes  0.000482159 0.542163 -0.142577
Spine  9.30214 -1.17106 -0.803184
Spine1  9.93901 -1.40244 -0.0250368
HEad  15.5377 6.21846 -5.62731
LeftShoulder1  8.07402 -12.1866 -44.8324
LeftArm  -23.1149 25.1287 -19.0094
LeftForeArm  28.1632 -51.1185 -11.7154
LeftHand  -0.25398 0.0180481 5.50724
RightShoulder  5.22716 8.88828 36.1955
RightArm  6.97927 -24.8477 35.9449
RightForeArm  -11.6737 25.4812 6.04116
RightHand  -1.46482 2.3485 -21.9908
LeftUpLeg  5.95985 12.2339 12.127
LeftLeg  4.86551 43.4299 -3.26808
LeftFoot  -4.26523 0.538678 -8.27066
LeftToes  1.06248e-005 4.65854e-005 -8.185e-006
260
root  20.1721 40.2646 -27.8166 0.0302734 -28.6393 0.00998462
RightUpLeg  -5.85337 -18.7202 -12.9909
RightLeg  6.02818 -25.4293 5.84491
RightFoot  4.83829 -0.526792 3.92568
RightToes  0.000482159 0.542163 -0.142577
Spine  9.306 -0.978112 1.6328
Spine1  10.2678 -0.64817 -1.36659
HEad  15.2641 10.8071 -6.75958
LeftShoulder1  7.98269 -12.0044 -44.8454
LeftArm  -23.1169 25.8298 -19.66
LeftForeArm  28.8274 -50.1935 -11.2445
LeftHand  -0.25398 0.0180481 5.50724
RightShoulder  5.31665 9.02325 36.4494
RightArm  8.10382 -23.8765 35.6186
RightForeArm  -12.1168 23.9574 5.74632
RightHand  -1.33881 1.85191 -21.4542
LeftUpLeg  7.92816 11.7596 13.3163
LeftLeg  4.77573 36.8892 -2.68844
LeftFoot  -7.48534 0.307132 -7.62825
LeftToes  1.06248e-005 4.65854e-005 -8.185e-006
261
root  19.1656 40.279 -27.6222 -0.270203 -33.6984 -0.73218
RightUpLeg  -6.03877 -18.4484 -10.6947
RightLeg  7.46512 -20.9181 5.52181
RightFoot  3.29944 -0.409482 3.37375
RightToes  0.000482159 0.542163 -0.142577
Spine  9.79393 -1.08761 3.17065
Spine1  10.602 -0.445581 -1.94171
HEad  14.9865 15.2738 -7.90923
LeftShoulder1  7.91774 -11.8867 -44.819
LeftArm  -23.0362 26.0389 -20.8415
LeftForeArm  29.6292 -48.1901 -10.3391
LeftHand  -0.25398 0.0180481 5.50724
RightShoulder  5.29107 9.02665 36.2384
RightArm  8.39485 -22.4137 35.5086
RightForeArm  -12.0428 22.3092 5.60823
RightHand  -1.14597 1.12356 -20.4262
LeftUpLeg  8.70181 11.0134 13.1134
LeftLeg  6.63007 27.2568 -0.894725
LeftFoot  -10.6394 0.0990524 -6.00224
LeftToes  1.06248e-005 4.65854e-005 -8.185e-006
262
root  18.2611 40.2776 -27.4139 -0.711731 -37.1171 -0.894806
RightUpLeg  -5.59123 -18.4752 -9.61877
RightLeg  8.86209 -17.8343 5.29597
RightFoot  1.48427 -0.461284 4.19999
RightToes  0.000482159 0.542163 -0.142577
Spine  10.2085 -1.48646 3.69888
Spine1  10.8798 -0.804642 -1.66163
HEad  14.8441 18.7103 -8.45819
LeftShoulder1  7.88214 -11.8479 -44.7263
LeftArm  -22.1936 25.5661 -22.131
LeftForeArm  30.3774 -45.2365 -9.16195
LeftHand  -0.25398 0.0180481 5.50724
RightShoulder  5.19077 8.89622 35.8826
RightArm  7.31461 -21.2992 35.3168
RightForeArm  -11.959 21.638 5.69516
RightHand  -1.10854 0.99377 -20.1516
LeftUpLeg  7.41868 12.8014 12.1195
LeftLeg  11.0032 14.4903 1.02836
LeftFoot  -12.3703 0.0224503 -5.5181
LeftToes  1.06248e-005 4.65854e-005 -8.185e-006
263
root  17.4341 40.2655 -27.1543 -0.997223 -39.8455 -0.883204
RightUpLeg  -5.13259 -18.0252 -9.09609
RightLeg  10.0795 -15.5445 5.34748
RightFoot  0.00915794 -0.523106 5.25398
RightToes  0.000482159 0.542163 -0.142577
Spine  10.293 -1.81077 4.30495
Spine1  11.0843 -1.04789 -1.32797
HEad  14.9111 20.8603 -8.4078
LeftShoulder1  7.88008 -11.836 -44.7502
LeftArm  -20.6557 24.7543 -23.0263
LeftForeArm  31.3791 -42.0593 -8.02135
LeftHand  -0.25398 0.0180481 5.50724
RightShoulder  5.1032 8.76969 35.6069
RightArm  6.19745 -21.0396 34.8944
RightForeArm  -13.0327 22.3893 5.66337
RightHand  -1.25576 1.53188 -21.0499
LeftUpLeg  4.76953 16.3618 11.0683
LeftLeg  16.8885 3.86661 1.55453
LeftFoot  -12.4154 0.0130663 -6.73519
LeftToes  1.06248e-005 4.65854e-005 -8.185e-006
264
root  16.6287 40.3111 -26.8226 -1.23788 -42.9515 -0.777397
RightUpLeg  -4.58633 -16.9602 -8.6844
RightLeg  10.6868 -13.3693 5.56298
RightFoot  -0.919853 -0.529484 5.72762
RightToes  0.000482159 0.542163 -0.142577
Spine  10.0332 -1.76893 5.28391
Spine1  11.2873 -0.717097 -1.7291
HEad  15.0128 22.3681 -8.33359
LeftShoulder1  7.88475 -11.7775 -44.9563
LeftArm  -19.2794 24.2619 -23.5398
LeftForeArm  32.3098 -39.2575 -7.11352
LeftHand  -0.25398 0.0180481 5.50724
RightShoulder  5.04761 8.73002 35.2936
RightArm  5.45626 -21.3001 34.4778
RightForeArm  -14.031 23.769 5.76345
RightHand  -1.44622 2.18264 -22.1769
LeftUpLeg  2.38018 18.2831 10.083
LeftLeg  21.8659 1.42361 1.02398
LeftFoot  -11.2762 0.0722303 -8.30093
LeftToes  1.06248e-005 4.65854e-005 -8.185e-006
265
root  15.8335 40.4188 -26.4395 -1.70132 -46.2985 -0.378072
RightUpLeg  -3.76836 -16.1384 -8.50565
RightLeg  10.8215 -10.8976 5.74457
RightFoot  -1.3684 -0.50324 5.65466
RightToes  0.000482159 0.542163 -0.142577
Spine  9.55913 -1.49839 6.19926
Spine1  11.5185 -0.0792353 -2.69842
HEad  14.8634 23.959 -8.60778
LeftShoulder1  7.85989 -11.6559 -45.1822
LeftArm  -18.6218 24.4329 -24.0134
LeftForeArm  32.0296 -36.815 -6.44937
LeftHand  -0.25398 0.0180481 5.50724
RightShoulder  4.98121 8.70648 34.8367
RightArm  5.30615 -21.4341 34.3213
RightForeArm  -14.089 24.8853 6.01787
RightHand  -1.53639 2.49135 -22.6317
LeftUpLeg  0.672851 21.2522 9.16309
LeftLeg  24.5264 2.44826 1.55566
LeftFoot  -10.1033 0.153362 -8.69788
LeftToes  1.06248e-005 4.65854e-005 -8.185e-006
266
root  15.0754 40.5366 -26.0427 -2.45212 -49.0048 0.299082
RightUpLeg  -2.68173 -15.7752 -8.64228
RightLeg  10.8107 -8.66706 5.81838
RightFoot  -1.48702 -0.439705 4.97956
RightToes  0.000482159 0.542163 -0.142577
Spine  9.15375 -1.3076 6.67482
Spine1  11.6481 0.338488 -3.4717
HEad  14.3361 25.6877 -9.1357
LeftShoulder1  7.82009 -11.5263 -45.3461
LeftArm  -18.3266 25.0364 -24.5353
LeftForeArm  30.0576 -34.4444 -5.94319
LeftHand  -0.25398 0.0180481 5.50724
RightShoulder  4.88915 8.60961 34.4091
RightArm  5.76154 -21.2322 34.2859
RightForeArm  -13.7842 25.5376 6.15703
RightHand  -1.53443 2.50735 -22.558
LeftUpLeg  -0.900332 23.4148 8.05356
LeftLeg  25.198 4.35019 2.55936
LeftFoot  -9.37106 0.191205 -7.84941
LeftToes  1.06248e-005 4.65854e-005 -8.185e-006
267
root  14.3725 40.6204 -25.649 -3.29257 -50.6375 0.906562
RightUpLeg  -1.36329 -15.2709 -8.86396
RightLeg  10.7947 -7.50909 5.73235
RightFoot  -1.7069 -0.346752 3.96937
RightToes  0.000482159 0.542163 -0.142577
Spine  9.02227 -1.29275 6.84096
Spine1  11.6083 0.389744 -3.62213
HEad  13.6199 27.1374 -9.6832
LeftShoulder1  7.81429 -11.4556 -45.5327
LeftArm  -17.7472 25.6029 -24.9037
LeftForeArm  27.4769 -32.0843 -5.50257
LeftHand  -0.25398 0.0180481 5.50724
RightShoulder  4.81324 8.47494 34.2314
RightArm  5.85988 -20.9822 34.1404
RightForeArm  -13.4284 25.8463 6.21277
RightHand  -1.54761 2.56927 -22.5775
LeftUpLeg  -2.68706 24.1339 7.06186
LeftLeg  24.7964 5.1257 2.91377
LeftFoot  -8.9545 0.204073 -7.20655
LeftToes  1.06248e-005 4.65854e-005 -8.185e-006
